<mxfile host="Electron" modified="2024-06-19T06:09:18.817Z" agent="Mozilla/5.0 (Macintosh; Intel Mac OS X 10_15_7) AppleWebKit/537.36 (KHTML, like Gecko) draw.io/24.5.3 Chrome/124.0.6367.207 Electron/30.0.6 Safari/537.36" etag="O_xfs6e6RJhz3muHzL3G" version="24.5.3" type="device">
  <diagram name="Page-1" id="5f0bae14-7c28-e335-631c-24af17079c00">
    <mxGraphModel dx="1194" dy="727" grid="0" gridSize="10" guides="1" tooltips="1" connect="1" arrows="1" fold="1" page="1" pageScale="1" pageWidth="1100" pageHeight="850" background="none" math="0" shadow="0">
      <root>
        <mxCell id="0" />
        <mxCell id="1" parent="0" />
        <mxCell id="a2Modo6sQF_i-p-t13WK-10" value="&lt;font style=&quot;font-size: 24px;&quot;&gt;&lt;b style=&quot;&quot;&gt;&lt;span style=&quot;white-space: pre;&quot;&gt;&#x9;&lt;/span&gt;Web Scraping&lt;/b&gt;&lt;/font&gt;" style="html=1;whiteSpace=wrap;align=left;verticalAlign=top;" parent="1" vertex="1">
          <mxGeometry x="50" y="100" width="470" height="530" as="geometry" />
        </mxCell>
        <mxCell id="a2Modo6sQF_i-p-t13WK-4" style="edgeStyle=orthogonalEdgeStyle;rounded=0;orthogonalLoop=1;jettySize=auto;html=1;entryX=0.5;entryY=0;entryDx=0;entryDy=0;exitX=0.454;exitY=1;exitDx=0;exitDy=0;exitPerimeter=0;" parent="1" source="a2Modo6sQF_i-p-t13WK-2" target="a2Modo6sQF_i-p-t13WK-6" edge="1">
          <mxGeometry relative="1" as="geometry">
            <mxPoint x="400" y="185" as="targetPoint" />
            <Array as="points">
              <mxPoint x="155" y="220" />
            </Array>
          </mxGeometry>
        </mxCell>
        <mxCell id="a2Modo6sQF_i-p-t13WK-2" value="&lt;font style=&quot;font-size: 18px;&quot;&gt;Get &lt;b&gt;URLs of Drugs&lt;/b&gt;&lt;/font&gt;" style="html=1;whiteSpace=wrap;" parent="1" vertex="1">
          <mxGeometry x="90" y="160" width="130" height="70" as="geometry" />
        </mxCell>
        <mxCell id="a2Modo6sQF_i-p-t13WK-9" style="edgeStyle=orthogonalEdgeStyle;rounded=0;orthogonalLoop=1;jettySize=auto;html=1;exitX=0.5;exitY=1;exitDx=0;exitDy=0;entryX=0.5;entryY=0;entryDx=0;entryDy=0;" parent="1" source="a2Modo6sQF_i-p-t13WK-5" target="a2Modo6sQF_i-p-t13WK-8" edge="1">
          <mxGeometry relative="1" as="geometry" />
        </mxCell>
        <mxCell id="a2Modo6sQF_i-p-t13WK-5" value="&lt;b&gt;&lt;font style=&quot;font-size: 18px;&quot;&gt;Scrape Drug using URL&lt;/font&gt;&lt;/b&gt;" style="html=1;whiteSpace=wrap;" parent="1" vertex="1">
          <mxGeometry x="90" y="390" width="130" height="70" as="geometry" />
        </mxCell>
        <mxCell id="a2Modo6sQF_i-p-t13WK-7" style="edgeStyle=orthogonalEdgeStyle;rounded=0;orthogonalLoop=1;jettySize=auto;html=1;exitX=0.5;exitY=1;exitDx=0;exitDy=0;" parent="1" source="a2Modo6sQF_i-p-t13WK-6" target="a2Modo6sQF_i-p-t13WK-5" edge="1">
          <mxGeometry relative="1" as="geometry" />
        </mxCell>
        <mxCell id="a2Modo6sQF_i-p-t13WK-13" style="edgeStyle=orthogonalEdgeStyle;rounded=0;orthogonalLoop=1;jettySize=auto;html=1;entryX=0;entryY=0.5;entryDx=0;entryDy=0;exitX=1;exitY=0.5;exitDx=0;exitDy=0;" parent="1" source="a2Modo6sQF_i-p-t13WK-6" target="a2Modo6sQF_i-p-t13WK-12" edge="1">
          <mxGeometry relative="1" as="geometry" />
        </mxCell>
        <mxCell id="a2Modo6sQF_i-p-t13WK-6" value="&lt;font style=&quot;font-size: 18px;&quot;&gt;&lt;b style=&quot;&quot;&gt;Validate&lt;/b&gt; the&amp;nbsp;&lt;/font&gt;&lt;div&gt;&lt;font style=&quot;font-size: 18px;&quot;&gt;list of URLs&lt;/font&gt;&lt;/div&gt;" style="html=1;whiteSpace=wrap;" parent="1" vertex="1">
          <mxGeometry x="90" y="280" width="130" height="70" as="geometry" />
        </mxCell>
        <mxCell id="a2Modo6sQF_i-p-t13WK-8" value="&lt;font style=&quot;font-size: 18px;&quot;&gt;&lt;b&gt;Process Data &lt;/b&gt;and store in JSON format&lt;/font&gt;" style="html=1;whiteSpace=wrap;" parent="1" vertex="1">
          <mxGeometry x="90" y="520" width="130" height="70" as="geometry" />
        </mxCell>
        <mxCell id="tAS16fn59pILYBJLjgns-2" style="edgeStyle=entityRelationEdgeStyle;rounded=0;orthogonalLoop=1;jettySize=auto;html=1;exitX=0.5;exitY=1;exitDx=0;exitDy=0;" edge="1" parent="1" source="a2Modo6sQF_i-p-t13WK-12" target="a2Modo6sQF_i-p-t13WK-5">
          <mxGeometry relative="1" as="geometry">
            <mxPoint x="415" y="360" as="sourcePoint" />
            <mxPoint x="220" y="435" as="targetPoint" />
            <Array as="points">
              <mxPoint x="400" y="380" />
              <mxPoint x="450" y="400" />
              <mxPoint x="210" y="433" />
              <mxPoint x="340" y="390" />
              <mxPoint x="360" y="390" />
            </Array>
          </mxGeometry>
        </mxCell>
        <mxCell id="a2Modo6sQF_i-p-t13WK-12" value="&lt;b&gt;&lt;font style=&quot;font-size: 18px;&quot;&gt;Correction of URLs using Google API&amp;nbsp;&lt;/font&gt;&lt;/b&gt;" style="html=1;whiteSpace=wrap;" parent="1" vertex="1">
          <mxGeometry x="350" y="280" width="130" height="70" as="geometry" />
        </mxCell>
        <mxCell id="a2Modo6sQF_i-p-t13WK-15" value="&lt;font style=&quot;font-size: 24px;&quot;&gt;&lt;b style=&quot;&quot;&gt;&lt;span style=&quot;white-space: pre;&quot;&gt;&#x9;&lt;/span&gt;Database&lt;/b&gt;&lt;/font&gt;" style="html=1;whiteSpace=wrap;align=left;verticalAlign=top;" parent="1" vertex="1">
          <mxGeometry x="580" y="100" width="470" height="530" as="geometry" />
        </mxCell>
        <mxCell id="a2Modo6sQF_i-p-t13WK-16" value="&lt;b&gt;&lt;font style=&quot;font-size: 24px;&quot;&gt;&amp;nbsp; &amp;nbsp; Drug Name to Athena Concept Code&lt;/font&gt;&lt;/b&gt;" style="html=1;whiteSpace=wrap;align=left;verticalAlign=top;" parent="1" vertex="1">
          <mxGeometry x="1100" y="100" width="470" height="530" as="geometry" />
        </mxCell>
        <mxCell id="a2Modo6sQF_i-p-t13WK-19" value="" style="edgeStyle=orthogonalEdgeStyle;rounded=0;orthogonalLoop=1;jettySize=auto;html=1;curved=1;" parent="1" source="a2Modo6sQF_i-p-t13WK-17" target="a2Modo6sQF_i-p-t13WK-18" edge="1">
          <mxGeometry relative="1" as="geometry" />
        </mxCell>
        <mxCell id="a2Modo6sQF_i-p-t13WK-21" style="edgeStyle=orthogonalEdgeStyle;rounded=0;orthogonalLoop=1;jettySize=auto;html=1;entryX=0.5;entryY=0;entryDx=0;entryDy=0;curved=1;" parent="1" source="a2Modo6sQF_i-p-t13WK-17" target="a2Modo6sQF_i-p-t13WK-20" edge="1">
          <mxGeometry relative="1" as="geometry" />
        </mxCell>
        <mxCell id="a2Modo6sQF_i-p-t13WK-24" value="" style="edgeStyle=orthogonalEdgeStyle;rounded=0;orthogonalLoop=1;jettySize=auto;html=1;" parent="1" source="a2Modo6sQF_i-p-t13WK-17" target="a2Modo6sQF_i-p-t13WK-23" edge="1">
          <mxGeometry relative="1" as="geometry" />
        </mxCell>
        <mxCell id="a2Modo6sQF_i-p-t13WK-17" value="&lt;b&gt;&lt;font style=&quot;font-size: 18px;&quot;&gt;Database Schema&lt;/font&gt;&lt;/b&gt;" style="html=1;whiteSpace=wrap;" parent="1" vertex="1">
          <mxGeometry x="760" y="130" width="130" height="50" as="geometry" />
        </mxCell>
        <mxCell id="a2Modo6sQF_i-p-t13WK-18" value="&lt;b&gt;&lt;font style=&quot;font-size: 18px;&quot;&gt;Drug View&lt;/font&gt;&lt;/b&gt;" style="whiteSpace=wrap;html=1;" parent="1" vertex="1">
          <mxGeometry x="640" y="270" width="120" height="60" as="geometry" />
        </mxCell>
        <mxCell id="a2Modo6sQF_i-p-t13WK-20" value="&lt;b&gt;&lt;font style=&quot;font-size: 18px;&quot;&gt;Salt View&lt;/font&gt;&lt;/b&gt;" style="whiteSpace=wrap;html=1;" parent="1" vertex="1">
          <mxGeometry x="890" y="270" width="120" height="60" as="geometry" />
        </mxCell>
        <mxCell id="a2Modo6sQF_i-p-t13WK-26" value="" style="edgeStyle=orthogonalEdgeStyle;rounded=0;orthogonalLoop=1;jettySize=auto;html=1;" parent="1" source="a2Modo6sQF_i-p-t13WK-23" target="a2Modo6sQF_i-p-t13WK-25" edge="1">
          <mxGeometry relative="1" as="geometry" />
        </mxCell>
        <mxCell id="a2Modo6sQF_i-p-t13WK-23" value="&lt;b&gt;&lt;font style=&quot;font-size: 18px;&quot;&gt;Database Creation&lt;/font&gt;&lt;/b&gt;" style="whiteSpace=wrap;html=1;" parent="1" vertex="1">
          <mxGeometry x="765" y="390" width="120" height="60" as="geometry" />
        </mxCell>
        <mxCell id="a2Modo6sQF_i-p-t13WK-25" value="&lt;div&gt;&lt;font style=&quot;font-size: 18px;&quot;&gt;&lt;span style=&quot;background-color: initial;&quot;&gt;&lt;b&gt;Loading Data&lt;/b&gt;&amp;nbsp;&amp;nbsp;&lt;/span&gt;&lt;/font&gt;&lt;/div&gt;" style="whiteSpace=wrap;html=1;" parent="1" vertex="1">
          <mxGeometry x="765" y="520" width="120" height="60" as="geometry" />
        </mxCell>
        <mxCell id="a2Modo6sQF_i-p-t13WK-30" value="" style="edgeStyle=orthogonalEdgeStyle;rounded=0;orthogonalLoop=1;jettySize=auto;html=1;" parent="1" source="a2Modo6sQF_i-p-t13WK-28" target="a2Modo6sQF_i-p-t13WK-31" edge="1">
          <mxGeometry relative="1" as="geometry">
            <mxPoint x="1335" y="260" as="targetPoint" />
          </mxGeometry>
        </mxCell>
        <mxCell id="a2Modo6sQF_i-p-t13WK-28" value="&lt;font style=&quot;font-size: 18px;&quot;&gt;Enter&lt;b&gt; Drug Name&lt;/b&gt;&lt;/font&gt;" style="html=1;whiteSpace=wrap;" parent="1" vertex="1">
          <mxGeometry x="1270" y="171" width="134" height="48" as="geometry" />
        </mxCell>
        <mxCell id="a2Modo6sQF_i-p-t13WK-41" style="edgeStyle=orthogonalEdgeStyle;rounded=0;orthogonalLoop=1;jettySize=auto;html=1;" parent="1" source="a2Modo6sQF_i-p-t13WK-31" target="a2Modo6sQF_i-p-t13WK-33" edge="1">
          <mxGeometry relative="1" as="geometry" />
        </mxCell>
        <mxCell id="a2Modo6sQF_i-p-t13WK-31" value="&lt;font style=&quot;font-size: 18px;&quot;&gt;Get &lt;b&gt;Active Ingredients&lt;/b&gt;&lt;/font&gt;" style="html=1;whiteSpace=wrap;" parent="1" vertex="1">
          <mxGeometry x="1272" y="273" width="131" height="46" as="geometry" />
        </mxCell>
        <mxCell id="a2Modo6sQF_i-p-t13WK-42" style="edgeStyle=orthogonalEdgeStyle;rounded=0;orthogonalLoop=1;jettySize=auto;html=1;entryX=0.5;entryY=0;entryDx=0;entryDy=0;" parent="1" source="a2Modo6sQF_i-p-t13WK-33" target="a2Modo6sQF_i-p-t13WK-34" edge="1">
          <mxGeometry relative="1" as="geometry" />
        </mxCell>
        <mxCell id="a2Modo6sQF_i-p-t13WK-33" value="&lt;font style=&quot;font-size: 18px;&quot;&gt;Map to &lt;b&gt;Substance&lt;/b&gt; in NRCeS CDC&lt;/font&gt;" style="html=1;whiteSpace=wrap;" parent="1" vertex="1">
          <mxGeometry x="1272" y="373" width="130" height="72" as="geometry" />
        </mxCell>
        <mxCell id="a2Modo6sQF_i-p-t13WK-14" value="&lt;b&gt;&lt;font style=&quot;font-size: 18px;&quot;&gt;If found&lt;/font&gt;&lt;/b&gt;&lt;div&gt;&lt;b&gt;&lt;font size=&quot;3&quot;&gt;invalid&lt;/font&gt;&lt;/b&gt;&lt;/div&gt;" style="text;html=1;align=center;verticalAlign=middle;whiteSpace=wrap;rounded=0;" parent="1" vertex="1">
          <mxGeometry x="247.5" y="300" width="75" height="30" as="geometry" />
        </mxCell>
        <mxCell id="a2Modo6sQF_i-p-t13WK-34" value="&lt;font style=&quot;font-size: 18px;&quot;&gt;Get Athena&amp;nbsp;&lt;/font&gt;&lt;div&gt;&lt;b&gt;&lt;font size=&quot;3&quot;&gt;Concept Code&lt;/font&gt;&lt;/b&gt;&lt;/div&gt;" style="html=1;whiteSpace=wrap;" parent="1" vertex="1">
          <mxGeometry x="1272" y="491" width="130" height="69" as="geometry" />
        </mxCell>
      </root>
    </mxGraphModel>
  </diagram>
</mxfile>
